<svg xmlns="http://www.w3.org/2000/svg" width="331.817" height="77.5"><path d="M158.158 42.814c0 5.381-1.462 9.417-4.445 12.108q-4.036 3.685-11.23 3.685-7.107 0-11.055-3.685c-2.925-2.691-4.445-6.726-4.445-12.108V22.401h10.06v20.355c0 4.738 1.872 7.077 5.615 7.077 3.685 0 5.5-2.34 5.5-7.077V22.401h10.06v20.413zm68.026-2.807c0 6.492-1.638 11.172-4.855 14.038-3.042 2.632-7.779 3.977-14.33 3.977h-11.523V22.401h12.458c5.966 0 10.411 1.228 13.336 3.743q4.914 4.299 4.914 13.863zm-10.119.175c0-3.334-.643-5.674-1.872-7.136s-3.334-2.164-6.375-2.164h-2.457v18.719h2.106c3.1 0 5.323-.7 6.609-2.106 1.345-1.405 1.989-3.862 1.989-7.313zm22.284 17.84h-10.06V22.401h10.06zm37.084 0h-10.646l-1.93-6.258h-10.645l-1.93 6.258h-10.587l12.926-35.562h9.943zm-15.032-14.1l-.643-2.34c-1.228-4.27-1.989-7.253-2.281-8.891-.292 1.638-1.053 4.621-2.281 8.891l-.643 2.34zm41.762 14.1h-25.736V22.401h9.943v26.964h15.734v8.657zm29.011 0h-27.608V22.401h27.257v8.306h-17.489v4.738h10.532v8.189h-10.532v6.083h17.84zM115.051 22.401l-4.387 9.475a89.346 89.346 0 0 0-4.445 10.7 93.444 93.444 0 0 0-4.445-10.7l-2.106-4.621a8.546 8.546 0 0 0-1.287-1.93 9.433 9.433 0 0 0-6.785-2.983h-3.275v35.563h9.242v-8.422q0-5.791-.175-9.475c1.111 2.749 2.515 5.849 4.094 9.3l4.039 8.535h1.287l4.036-8.54a138.942 138.942 0 0 0 4.094-9.3q-.175 3.685-.175 9.475v8.481h9.242V22.401zm77.266-.058h-9.826v19.126l-5.147-8.247c-1.521-2.457-3.158-5.089-3.158-5.089a14.521 14.521 0 0 0-3.392-3.919 10.342 10.342 0 0 0-5.03-1.872H161.2v35.563h9.885V40.183l11.172 17.723h10V22.343zm.468 43.751c1.755 0 2.457 1.111 2.457 2.749v1.228c0 1.813-.819 2.691-2.632 2.691h-1.4v4.679h-.76V66.094zm-.175 5.966c1.287 0 1.872-.585 1.872-1.989v-1.345c0-1.228-.409-2.047-1.7-2.047h-1.577v5.323h1.4zm7.545 2.866l-.585 2.515h-.702l2.457-11.347h1.111l2.515 11.347h-.76l-.585-2.515zm.117-.643h3.334l-1.7-7.37zm9.533-8.189v11.347h-.76V66.094zm7.078 6.083l-2.281 5.264h-.7l2.574-5.908-2.4-5.44h.76L217 70.948l2.164-4.854h.7l-2.4 5.44 2.574 5.908h-.819zm8.247 2.749l-.585 2.515h-.7l2.515-11.347h1.111l2.515 11.347h-.76l-.585-2.515h-3.509zm2.574-10.119c.292 0 .468-.234.585-.526l.409.292c-.234.468-.526.76-.936.76-.585.058-.994-.526-1.521-.526a.825.825 0 0 0-.7.468l-.409-.234a1.084 1.084 0 0 1 .994-.76c.642-.058 1.051.526 1.577.526zm-2.461 9.477h3.334l-1.7-7.37zm8.719-5.441c0-1.638.76-2.866 2.457-2.866 1.755 0 2.515 1.228 2.515 2.866v5.791c0 1.638-.76 2.866-2.515 2.866-1.7 0-2.457-1.228-2.457-2.866zm.76 5.849c0 1.228.468 2.164 1.755 2.164s1.755-.936 1.755-2.164v-5.908c0-1.228-.526-2.164-1.755-2.164s-1.755.936-1.755 2.164zm16.203-8.598c1.755 0 2.457 1.111 2.457 2.749v1.228c0 1.813-.819 2.691-2.632 2.691h-1.4v4.679h-.765V66.094zm-.234 5.966c1.287 0 1.872-.585 1.872-1.989v-1.345c0-1.228-.409-2.047-1.7-2.047h-1.578v5.323h1.4zm6.667-3.217c0-1.638.76-2.866 2.457-2.866 1.755 0 2.515 1.228 2.515 2.866v5.791c0 1.638-.76 2.866-2.515 2.866-1.7 0-2.457-1.228-2.457-2.866zm.7 5.849c0 1.228.468 2.164 1.755 2.164s1.755-.936 1.755-2.164v-5.908c0-1.228-.526-2.164-1.755-2.164s-1.755.936-1.755 2.164zm10.764-8.598c1.755 0 2.457.936 2.457 2.574v.994c0 1.345-.526 2.106-1.638 2.34a2.063 2.063 0 0 1 1.638 2.34v1.752a2.537 2.537 0 0 0 .292 1.345h-.76a2.925 2.925 0 0 1-.234-1.345v-1.755c0-1.521-.819-1.93-2.106-1.93h-1.17v5.089h-.76V66.094zm-.409 5.557c1.345 0 2.106-.351 2.106-1.872v-1.053c0-1.228-.468-1.93-1.7-1.93h-1.578v4.913h1.17zm13.277-5.557l2.281 10.47 2.281-10.47h.7l-2.457 11.347h-1.111l-2.513-11.347zm13.219 5.264v.7h-3.1v4.736h3.74v.7h-4.5v-11.4h4.5v.7h-3.74v4.562zm5.438 6.083h-.7V66.094h.994l3.392 9.592v-9.592h.7v11.347h-.819l-3.567-10.119zm11.056-11.347c1.755 0 2.515 1.17 2.515 2.808v5.732c0 1.7-.76 2.808-2.515 2.808h-2.515V66.094zm0 10.645c1.287 0 1.755-.877 1.755-2.106v-5.791c0-1.228-.526-2.106-1.755-2.106h-1.755v10zm10.528-5.381v.7h-3.1v4.736h3.74v.7h-4.5v-11.4h4.5v.7h-3.74v4.562zm7.136-5.264c1.755 0 2.457.936 2.457 2.574v.994c0 1.345-.526 2.106-1.638 2.34 1.17.234 1.638 1.111 1.638 2.34v1.752a2.537 2.537 0 0 0 .292 1.345h-.76a2.924 2.924 0 0 1-.234-1.345v-1.755c0-1.521-.819-1.93-2.106-1.93h-1.17v5.089h-.76V66.094zm-.468 5.557c1.345 0 2.106-.351 2.106-1.872v-1.053c0-1.228-.468-1.93-1.7-1.93h-1.579v4.913h1.17z" fill="#415364"/><path d="M77.909 17.02l-9.476 16.085-10.06-16.845L67.848.175z" fill="#81d8df"/><path d="M28.718 0l-9.475 16.085L29.42 33.047l9.475-16.085z" fill="#007faf"/><path d="M28.718 0l-9.475 16.085 39.13.175L67.849.175z" fill="#00a3d3"/><path d="M49.19 66.094l9.475-16.085-39.13-.175-9.475 16.085z" fill="#729e33"/><path d="M49.19 66.094l9.475-16.085-10.177-16.962-9.475 16.085z" fill="#8ac543"/><path d="M0 48.664l9.475-16.085 10.06 17.255-9.475 16.085z" fill="#618425"/></svg>